<svg width="18" height="18" viewBox="0 0 18 18" fill="none" xmlns="http://www.w3.org/2000/svg">
<rect width="18" height="18" rx="9" fill="#C7AE86"/>
<path fill-rule="evenodd" clip-rule="evenodd" d="M13.6949 5.70507C13.8262 5.83634 13.8999 6.01436 13.8999 6.19997C13.8999 6.38559 13.8262 6.5636 13.6949 6.69487L8.09494 12.2949C7.96367 12.4261 7.78566 12.4998 7.60004 12.4998C7.41443 12.4998 7.23641 12.4261 7.10514 12.2949L4.30514 9.49487C4.17763 9.36285 4.10707 9.18603 4.10867 9.00249C4.11026 8.81895 4.18388 8.64339 4.31367 8.5136C4.44345 8.38381 4.61902 8.3102 4.80256 8.3086C4.9861 8.30701 5.16292 8.37756 5.29494 8.50507L7.60004 10.8102L12.7051 5.70507C12.8364 5.57384 13.0144 5.50012 13.2 5.50012C13.3857 5.50012 13.5637 5.57384 13.6949 5.70507Z" fill="white"/>
</svg>
