
<svg width="36" height="36" viewBox="0 0 36 36" fill="none" xmlns="http://www.w3.org/2000/svg">
<path fill-rule="evenodd" clip-rule="evenodd" d="M35.8792 18C35.8792 27.665 28.0441 35.5 18.3792 35.5C8.71417 35.5 0.87915 27.665 0.87915 18C0.87915 8.33502 8.71417 0.5 18.3792 0.5C28.0441 0.5 35.8792 8.33502 35.8792 18ZM16.3238 33.4658V26.2111H12.4655C12.4103 26.2111 12.3655 26.1663 12.3655 26.1111V21.1146C12.3655 21.0594 12.4103 21.0146 12.4655 21.0146H16.3238V18.2616C16.3238 13.7711 20.8814 12.1829 22.9099 12.1829H25.8294C25.8846 12.1829 25.9294 12.2276 25.9294 12.2829V16.7432C25.9294 16.7985 25.8846 16.8432 25.8294 16.8432H24.0112C23.2613 16.8432 21.4836 17.5362 21.4836 18.8708V21.0146H25.829C25.8888 21.0146 25.9353 21.0668 25.9283 21.1262L25.3438 26.1227C25.3379 26.1731 25.2952 26.2111 25.2445 26.2111H21.4836V33.2911C28.612 31.8517 33.9791 25.5526 33.9791 18C33.9791 9.38436 26.9948 2.4 18.3792 2.4C9.76351 2.4 2.77915 9.38436 2.77915 18C2.77915 25.9189 8.67955 32.4597 16.3238 33.4658ZM17.9238 33.4434V24.6111H13.9655V22.6146H17.9238V18.2616C17.9238 16.6524 18.7053 15.5842 19.763 14.8564C20.8836 14.0855 22.2126 13.7829 22.9099 13.7829H24.3294V15.2432C23.3591 15.2432 22.44 15.4804 21.6115 16.004C20.8608 16.4783 19.8836 17.4118 19.8836 18.8708V22.6146H24.1433L23.9097 24.6111H19.8836V33.4434H17.9238Z" fill="#CA9538"/>
</svg>
