<svg width="20" height="20" viewBox="0 0 20 20" fill="none" xmlns="http://www.w3.org/2000/svg">
<path fill-rule="evenodd" clip-rule="evenodd" d="M19.218 9.8679C19.218 15.0651 15.0048 19.2783 9.80759 19.2783C4.61039 19.2783 0.397217 15.0651 0.397217 9.8679C0.397217 4.67069 4.61039 0.45752 9.80759 0.45752C15.0048 0.45752 19.218 4.67069 19.218 9.8679ZM8.70234 18.1844V14.2833H6.62763C6.59794 14.2833 6.57386 14.2592 6.57386 14.2295V11.5427C6.57386 11.513 6.59794 11.489 6.62763 11.489H8.70234V10.0086C8.70234 7.59385 11.1531 6.73982 12.244 6.73982H13.8138C13.8435 6.73982 13.8676 6.7639 13.8676 6.7936V9.19209C13.8676 9.22179 13.8435 9.24586 13.8138 9.24586H12.8361C12.4329 9.24586 11.477 9.61851 11.477 10.3361V11.489H13.8136C13.8458 11.489 13.8708 11.517 13.867 11.549L13.5528 14.2358C13.5496 14.2629 13.5266 14.2833 13.4993 14.2833H11.477V18.0905C15.3101 17.3164 18.1963 13.9292 18.1963 9.8679C18.1963 5.23496 14.4405 1.47922 9.80759 1.47922C5.17465 1.47922 1.41891 5.23496 1.41891 9.8679C1.41891 14.1262 4.59177 17.6434 8.70234 18.1844ZM9.56272 18.1724V13.4229H7.43424V12.3493H9.56272V10.0086C9.56272 9.14327 9.98296 8.56883 10.5518 8.1775C11.1543 7.76293 11.869 7.6002 12.244 7.6002H13.0072V8.38549C12.4855 8.38549 11.9913 8.51302 11.5457 8.79456C11.1421 9.04965 10.6166 9.55158 10.6166 10.3361V12.3493H12.9072L12.7816 13.4229H10.6166V18.1724H9.56272Z" fill="#343A32"/>
</svg>
