<svg width="18" height="18" viewBox="0 0 18 18" fill="none" xmlns="http://www.w3.org/2000/svg">
<path fill-rule="evenodd" clip-rule="evenodd" d="M9.33961 12.6321C11.4185 12.6321 13.1038 10.9468 13.1038 8.86793C13.1038 6.78905 11.4185 5.10378 9.33961 5.10378C7.26073 5.10378 5.57546 6.78905 5.57546 8.86793C5.57546 10.9468 7.26073 12.6321 9.33961 12.6321ZM9.33961 11.5566C10.8245 11.5566 12.0283 10.3528 12.0283 8.86793C12.0283 7.38302 10.8245 6.17925 9.33961 6.17925C7.8547 6.17925 6.65093 7.38302 6.65093 8.86793C6.65093 10.3528 7.8547 11.5566 9.33961 11.5566Z" fill="#343A32"/>
<path d="M14.1792 5.10378C14.4762 5.10378 14.717 4.86303 14.717 4.56605C14.717 4.26906 14.4762 4.02831 14.1792 4.02831C13.8823 4.02831 13.6415 4.26906 13.6415 4.56605C13.6415 4.86303 13.8823 5.10378 14.1792 5.10378Z" fill="#343A32"/>
<path fill-rule="evenodd" clip-rule="evenodd" d="M5.57546 0.26416C2.90261 0.26416 0.73584 2.43093 0.73584 5.10378V12.6321C0.73584 15.3049 2.90261 17.4717 5.57546 17.4717H13.1038C15.7766 17.4717 17.9434 15.3049 17.9434 12.6321V5.10378C17.9434 2.43093 15.7766 0.26416 13.1038 0.26416H5.57546ZM13.1038 1.33963H5.57546C3.49658 1.33963 1.81131 3.0249 1.81131 5.10378V12.6321C1.81131 14.711 3.49658 16.3962 5.57546 16.3962H13.1038C15.1826 16.3962 16.8679 14.711 16.8679 12.6321V5.10378C16.8679 3.0249 15.1826 1.33963 13.1038 1.33963Z" fill="#343A32"/>
</svg>
