<svg width="223" height="222" viewBox="0 0 223 222" fill="none" xmlns="http://www.w3.org/2000/svg">
<path d="M92.4639 208.691L92.425 208.867C92.131 208.819 91.8848 208.807 91.6866 208.833C91.4884 208.859 91.3016 208.93 91.1261 209.046C90.9321 209.174 90.7794 209.357 90.6682 209.595C90.5569 209.832 90.4434 210.214 90.3275 210.739L89.9908 212.229C89.9436 212.443 89.9346 212.69 89.9639 212.969C89.9944 213.292 90.1101 213.713 90.3109 214.233L91.6357 217.646L91.8695 218.259C92.0441 218.704 92.2406 219.025 92.459 219.223C92.5696 219.328 92.6853 219.41 92.806 219.468C92.9268 219.527 93.1008 219.587 93.328 219.648L93.2892 219.824L88.3015 218.723L88.3403 218.547C88.7692 218.615 89.048 218.637 89.1765 218.612C89.4891 218.552 89.6809 218.362 89.7517 218.041C89.7776 217.923 89.7763 217.784 89.7477 217.622C89.714 217.46 89.6505 217.251 89.5572 216.995L88.1996 213.294L85.814 215.672L85.5459 215.942C85.292 216.196 85.1335 216.466 85.0705 216.751C84.9985 217.078 85.0474 217.353 85.2171 217.578C85.3868 217.802 85.6604 217.956 86.0377 218.039L85.9989 218.215L82.48 217.439L82.5188 217.263C82.7908 217.291 83.0049 217.29 83.1612 217.261C83.3164 217.236 83.4825 217.174 83.6597 217.074C84.0785 216.824 84.5709 216.422 85.1371 215.867L87.4685 213.59C87.7473 213.32 87.926 213.116 88.0046 212.978C88.0831 212.84 88.1612 212.596 88.2388 212.244L88.6522 210.37C88.7726 209.824 88.8337 209.426 88.8356 209.175C88.8312 208.928 88.766 208.702 88.64 208.498C88.4247 208.14 88.057 207.904 87.5368 207.789L87.5756 207.613L92.4639 208.691Z" fill="#343A32"/>
<path d="M79.0295 208.644C78.7334 209.436 78.1758 210.034 77.3566 210.436C76.3609 210.922 75.3665 210.98 74.3733 210.609C73.3802 210.238 72.6697 209.543 72.2418 208.525C71.8886 207.679 71.8601 206.86 72.1562 206.068C72.4486 205.285 72.9879 204.692 73.7741 204.289C74.7404 203.791 75.7471 203.738 76.794 204.129C77.841 204.52 78.5686 205.221 78.977 206.233C79.1364 206.627 79.2219 207.032 79.2334 207.449C79.24 207.864 79.1721 208.262 79.0295 208.644ZM77.6638 208.226C77.9818 207.374 78.0605 206.582 77.9001 205.847C77.7163 205.026 77.3138 204.499 76.6924 204.267C76.4283 204.168 76.144 204.146 75.8397 204.199C75.5353 204.253 75.2433 204.378 74.9636 204.574C74.6705 204.777 74.3884 205.062 74.1175 205.429C73.8447 205.801 73.6362 206.18 73.4918 206.567C73.3419 206.968 73.2547 207.395 73.2302 207.849C73.199 208.305 73.2338 208.72 73.3345 209.092C73.5291 209.795 73.9175 210.255 74.4997 210.472C75.0525 210.679 75.6383 210.566 76.2569 210.134C76.8805 209.703 77.3494 209.067 77.6638 208.226Z" fill="#343A32"/>
<path d="M63.678 198.171C63.5917 198.479 63.4717 198.779 63.3181 199.07C64.1977 198.802 65.0324 198.877 65.8221 199.294C66.3993 199.599 66.7891 199.985 66.9913 200.452C67.1867 200.91 67.1502 201.392 66.8819 201.9L65.6088 204.311L65.3377 204.841C65.1719 205.155 65.0696 205.393 65.031 205.556C64.9923 205.719 64.997 205.878 65.0449 206.033C65.113 206.228 65.3043 206.448 65.619 206.691L65.5421 206.836L63.5125 205.764L65.3673 202.252C65.6283 201.758 65.806 201.382 65.9005 201.125C65.9879 200.87 66.0257 200.642 66.0138 200.441C65.9952 200.23 65.9155 200.029 65.775 199.836C65.632 199.649 65.4427 199.492 65.2072 199.368C64.9486 199.232 64.6793 199.154 64.3994 199.136C64.1195 199.118 63.8685 199.163 63.6465 199.27C63.4175 199.38 63.22 199.541 63.054 199.755C62.8835 199.966 62.6555 200.342 62.3702 200.882L61.6531 202.24L61.3893 202.756C61.2235 203.07 61.1212 203.308 61.0826 203.471C61.0393 203.631 61.0439 203.79 61.0965 203.948C61.1599 204.141 61.3513 204.36 61.6706 204.605L61.5937 204.751L59.5641 203.679L61.5506 199.917C61.8018 199.442 61.9671 199.101 62.0464 198.895C62.1187 198.691 62.1496 198.509 62.1391 198.35C62.1243 198.177 62.0773 198.031 61.9982 197.913C61.9166 197.799 61.7756 197.68 61.5751 197.556L61.6483 197.418L63.678 198.171Z" fill="#343A32"/>
<path d="M52.5108 198.022C52.1702 198.188 51.8557 198.274 51.5674 198.279C51.0357 198.29 50.5411 198.139 50.0836 197.828C49.8031 197.636 49.6322 197.428 49.5707 197.203C49.5134 197 49.5406 196.816 49.6524 196.652C49.7348 196.531 49.8434 196.46 49.9783 196.438C50.109 196.413 50.2368 196.444 50.362 196.529C50.5087 196.629 50.5948 196.776 50.6204 196.97L50.6711 197.327C50.716 197.604 50.8464 197.816 51.0622 197.964C51.3556 198.164 51.7138 198.13 52.1366 197.862C52.5594 197.594 53.0017 197.121 53.4634 196.443L54.2884 195.233L54.6173 194.736C54.8173 194.443 54.9471 194.215 55.0066 194.054C55.0633 193.896 55.0729 193.739 55.0354 193.58C54.994 193.381 54.832 193.142 54.5495 192.86L54.6377 192.731L57.4925 194.677L57.4042 194.806C57.1218 194.664 56.9039 194.585 56.7505 194.569C56.5942 194.557 56.43 194.603 56.258 194.707C56.1429 194.774 56.0091 194.901 55.8565 195.088C55.6967 195.276 55.4874 195.56 55.2286 195.94L54.1389 197.539C53.8359 197.983 53.6349 198.301 53.5359 198.493C53.434 198.689 53.3815 198.868 53.3783 199.03C53.3694 199.201 53.399 199.348 53.4673 199.47C53.5326 199.597 53.658 199.733 53.8434 199.878L53.7551 200.007L51.9327 199.107C52.1269 198.664 52.3197 198.302 52.5108 198.022Z" fill="#343A32"/>
<path d="M40.4654 181.295C40.254 181.077 40.0624 180.922 39.8909 180.83C39.7193 180.737 39.5284 180.685 39.3181 180.675C39.0857 180.664 38.8544 180.721 38.6241 180.846C38.3865 180.971 38.0674 181.209 37.6668 181.561L33.3257 185.367C32.8938 185.746 32.6018 186.05 32.4497 186.281C32.2942 186.507 32.2188 186.754 32.2235 187.021C32.2312 187.354 32.3887 187.716 32.6962 188.107L32.5607 188.225L29.7202 184.986C29.0902 184.267 28.6969 183.803 28.5405 183.593C27.8768 182.709 27.4961 181.8 27.3984 180.864C27.3051 179.974 27.4403 179.098 27.804 178.237C28.1637 177.38 28.7147 176.626 29.4569 175.976C29.9988 175.5 30.5887 175.139 31.2266 174.893C31.8572 174.645 32.4675 174.537 33.0576 174.569C33.8874 174.612 34.649 174.906 35.3422 175.452C35.8595 175.859 36.3402 176.316 36.7843 176.823L40.6009 181.176L40.4654 181.295ZM30.5277 185.538L36.3826 180.405C36.7675 180.067 37.0411 179.789 37.2035 179.571C37.3659 179.352 37.4661 179.122 37.5042 178.88C37.5901 178.36 37.3852 177.817 36.8894 177.252C36.4659 176.769 36.0259 176.425 35.5693 176.221C35.1053 176.017 34.5758 175.936 33.9809 175.978C33.4012 176.014 32.8293 176.158 32.265 176.41C31.6934 176.661 31.1563 177.007 30.6537 177.448C30.0961 177.936 29.64 178.486 29.2854 179.095C28.9308 179.705 28.7027 180.332 28.6012 180.977C28.4611 181.87 28.5717 182.694 28.9331 183.446C29.132 183.855 29.4552 184.315 29.9028 184.826L30.5277 185.538Z" fill="#343A32"/>
<path d="M25.58 169.342C25.806 169.22 25.9672 169.128 26.0636 169.066C26.4448 168.819 26.7817 168.522 27.0743 168.177C27.3641 167.827 27.5669 167.478 27.6829 167.128C27.8004 166.772 27.8354 166.404 27.788 166.024C27.7378 165.639 27.609 165.287 27.4015 164.967C27.2481 164.731 27.0637 164.533 26.8484 164.374C26.6303 164.21 26.4056 164.104 26.1745 164.054C25.9188 163.996 25.5853 164.019 25.1741 164.124L25.1348 163.963C25.7213 163.745 26.2683 163.738 26.7756 163.945C27.2756 164.149 27.7275 164.563 28.131 165.185C28.4806 165.724 28.695 166.242 28.7742 166.738C28.8534 167.234 28.8023 167.731 28.6207 168.229C28.3672 168.922 27.879 169.504 27.156 169.973C26.1702 170.612 25.1681 170.761 24.1497 170.419C23.4097 170.171 22.8266 169.718 22.4003 169.061C22.1729 168.71 22.0261 168.345 21.9599 167.965C21.8894 167.587 21.9056 167.219 22.0086 166.859C22.1692 166.301 22.5255 165.842 23.0776 165.484L25.58 169.342ZM23.4564 166.63C23.0382 166.945 22.7534 167.245 22.602 167.53C22.4641 167.787 22.3977 168.054 22.4029 168.331C22.4038 168.611 22.4766 168.862 22.6216 169.086C22.866 169.462 23.2427 169.688 23.7516 169.762C24.2578 169.833 24.7732 169.735 25.2981 169.469L23.4564 166.63Z" fill="#343A32"/>
<path d="M23.5571 157.75L21.5737 158.741L21.5177 158.628C21.9383 158.255 22.2444 157.898 22.4361 157.557C22.7845 156.934 22.8385 156.381 22.5982 155.9C22.4512 155.606 22.2353 155.395 21.9504 155.269C21.6375 155.133 21.3012 155.155 20.9414 155.335C20.6471 155.482 20.4321 155.694 20.2965 155.972C20.2263 156.124 20.1783 156.297 20.1525 156.491C20.1244 156.68 20.1056 156.987 20.096 157.412C20.0769 158.157 20.0112 158.68 19.8989 158.981C19.7399 159.411 19.4641 159.724 19.0716 159.92C18.6511 160.13 18.219 160.17 17.7753 160.042C17.2686 159.892 16.8822 159.551 16.6163 159.018C16.4973 158.78 16.4285 158.537 16.41 158.289L16.3961 157.999C16.3868 157.91 16.3682 157.837 16.3402 157.781C16.2959 157.693 16.1838 157.643 16.004 157.634L15.934 157.494L17.4864 156.622L17.5599 156.77C17.3613 156.933 17.2094 157.079 17.1042 157.207C16.9967 157.331 16.9067 157.478 16.8342 157.648C16.729 157.882 16.6752 158.119 16.6727 158.36C16.6656 158.602 16.7086 158.817 16.802 159.004C16.9326 159.266 17.1404 159.442 17.4253 159.534C17.7032 159.622 17.9799 159.598 18.2556 159.46C18.4845 159.346 18.6516 159.161 18.7569 158.904C18.8551 158.645 18.895 158.304 18.8766 157.881L18.842 156.97C18.8213 156.426 18.9056 155.969 19.095 155.6C19.2844 155.231 19.5823 154.945 19.9888 154.742C20.4794 154.497 20.9653 154.453 21.4463 154.61C22.0021 154.788 22.4223 155.162 22.7069 155.732C22.8609 156.04 22.9564 156.384 22.9936 156.762C23.0168 157.007 23.0343 157.153 23.0459 157.2C23.0529 157.249 23.0727 157.306 23.1054 157.372C23.187 157.535 23.3189 157.624 23.5011 157.638L23.5571 157.75Z" fill="#343A32"/>
<path d="M12.4572 149.365L11.7408 147.5L12.0187 147.394L12.7351 149.258L16.991 147.623C17.5029 147.426 17.8348 147.198 17.9868 146.938C18.0731 146.799 18.1213 146.641 18.1315 146.463C18.1417 146.286 18.113 146.109 18.0456 145.934C17.9613 145.715 17.8472 145.549 17.7033 145.436C17.5545 145.325 17.3269 145.228 17.0206 145.144L17.0735 144.998C17.4278 145.047 17.7319 145.19 17.9856 145.428C18.2375 145.662 18.4468 145.995 18.6135 146.429C18.8345 147.004 18.8835 147.467 18.7604 147.816C18.6977 148.002 18.5943 148.148 18.4503 148.254C18.3014 148.362 18.0149 148.497 17.5908 148.66L13.1594 150.362L13.46 151.145L13.343 151.19C13.1189 150.912 12.809 150.696 12.4135 150.54C12.1713 150.448 11.9438 150.387 11.7308 150.357C11.513 150.329 11.2458 150.326 10.9293 150.346L10.6599 150.366L10.556 150.095L12.4572 149.365Z" fill="#343A32"/>
<path d="M10.1697 142.351L9.27195 140.27L13.6203 139.008L14.1898 138.834C14.5309 138.735 14.7758 138.642 14.9247 138.556C15.0685 138.47 15.1763 138.355 15.2481 138.209C15.3428 138.029 15.3706 137.741 15.3316 137.344L15.4821 137.301L16.4453 140.618L16.2949 140.662C16.1674 140.373 16.0496 140.173 15.9415 140.063C15.8284 139.954 15.6725 139.886 15.4736 139.856C15.3423 139.835 15.1583 139.847 14.9218 139.894C14.6788 139.937 14.3366 140.023 13.8952 140.151L12.0371 140.691C11.5205 140.841 11.163 140.958 10.9647 141.043C10.7613 141.129 10.6068 141.234 10.5011 141.357C10.3855 141.483 10.315 141.615 10.2898 141.753C10.2595 141.892 10.2696 142.077 10.3201 142.307L10.1697 142.351ZM6.75878 141.644C6.81557 141.84 6.80021 142.021 6.71269 142.188C6.62371 142.35 6.48392 142.458 6.29334 142.514C6.10777 142.567 5.93337 142.547 5.77012 142.453C5.60186 142.361 5.49006 142.219 5.43473 142.029C5.37939 141.838 5.398 141.659 5.49053 141.49C5.57806 141.324 5.7146 141.213 5.90017 141.159C6.09075 141.104 6.26767 141.123 6.43091 141.217C6.5927 141.306 6.70199 141.449 6.75878 141.644Z" fill="#343A32"/>
<path d="M7.24853 131.974C7.53367 131.849 7.80473 131.763 8.06171 131.716L8.18507 131.694C7.44319 131.17 6.99306 130.468 6.8347 129.589C6.71616 128.931 6.77496 128.374 7.01111 127.918C7.24304 127.467 7.63912 127.192 8.19935 127.091L11.4682 126.502C11.8177 126.439 12.071 126.372 12.228 126.301C12.38 126.231 12.4992 126.128 12.5859 125.99C12.6987 125.821 12.7564 125.537 12.7589 125.139L12.9131 125.111L13.5257 128.511L13.3715 128.539C13.2748 128.238 13.1785 128.027 13.0824 127.906C12.9813 127.787 12.8333 127.702 12.6386 127.652C12.5102 127.617 12.3259 127.61 12.0858 127.632C11.8396 127.65 11.4929 127.699 11.0458 127.78L9.41135 128.074C8.85112 128.175 8.44365 128.27 8.18894 128.358C7.93329 128.442 7.73553 128.551 7.59565 128.688C7.43706 128.839 7.32885 129.033 7.27102 129.272C7.20804 129.511 7.20064 129.765 7.2488 130.032C7.30066 130.32 7.40581 130.58 7.56427 130.811C7.72179 131.037 7.91118 131.205 8.13242 131.314C8.36579 131.431 8.61817 131.491 8.88955 131.496C9.15487 131.496 9.58821 131.441 10.1896 131.333L11.7006 131.061L12.2697 130.95C12.6192 130.887 12.8725 130.82 13.0296 130.75C13.1815 130.68 13.3008 130.576 13.3874 130.438C13.5003 130.27 13.5579 129.986 13.5604 129.587L13.7146 129.56L14.3272 132.96L14.173 132.987C14.0764 132.686 13.98 132.476 13.884 132.355C13.7828 132.235 13.6349 132.15 13.4401 132.101C13.3117 132.065 13.1275 132.059 12.8874 132.081C12.6412 132.099 12.2919 132.148 11.8396 132.23L9.93535 132.573C9.40596 132.668 9.03822 132.748 8.83212 132.811C8.62088 132.876 8.45632 132.964 8.33843 133.075C8.21026 133.189 8.12646 133.313 8.08701 133.447C8.04242 133.583 8.03325 133.767 8.0595 134.001L7.90531 134.029L7.24853 131.974Z" fill="#343A32"/>
<path d="M11.2266 113.726L11.2971 113.589C11.8554 113.744 12.154 114.159 12.193 114.831C12.2145 115.201 12.1411 115.514 11.9728 115.77C11.8623 115.939 11.6634 116.118 11.3762 116.307C11.7093 116.638 11.9305 116.889 12.0398 117.061C12.2472 117.389 12.3639 117.777 12.3899 118.225C12.4231 118.799 12.3114 119.263 12.0547 119.618C11.7978 119.968 11.4347 120.156 10.9654 120.183C10.5327 120.209 10.1623 120.091 9.85432 119.832C9.68363 119.685 9.54546 119.512 9.43982 119.315C9.32897 119.117 9.21283 118.828 9.09139 118.448C8.95039 118.001 8.83459 117.673 8.74398 117.464C8.65308 117.249 8.54865 117.072 8.4307 116.933C8.30111 116.773 8.15368 116.666 7.98843 116.613C7.82318 116.56 7.59717 116.542 7.31042 116.558C6.70041 116.594 6.26129 116.734 5.99306 116.98C5.86876 117.092 5.77235 117.233 5.70381 117.405C5.63498 117.571 5.6057 117.743 5.61598 117.92C5.62838 118.134 5.69416 118.321 5.81332 118.481C5.93249 118.642 6.09094 118.758 6.28868 118.83L6.75362 119C7.00471 119.09 7.13811 119.27 7.15384 119.541C7.16412 119.719 7.11538 119.87 7.00763 119.997C6.89467 120.124 6.74956 120.193 6.57229 120.203C6.30639 120.218 6.07132 120.044 5.86707 119.679C5.76143 119.481 5.67132 119.235 5.59674 118.941C5.51663 118.642 5.46827 118.35 5.45164 118.063C5.4329 117.74 5.4551 117.401 5.51827 117.047C5.58143 116.693 5.67138 116.394 5.78812 116.152C5.96137 115.802 6.19939 115.576 6.50216 115.475C6.65615 115.424 6.91824 115.388 7.28841 115.367L10.182 115.199C10.6721 115.171 11.0046 115.13 11.1794 115.078C11.5445 114.968 11.7172 114.744 11.6975 114.405C11.6881 114.243 11.6522 114.12 11.5897 114.035C11.5269 113.944 11.4059 113.841 11.2266 113.726ZM8.29491 116.485C8.54585 116.753 8.76978 117.052 8.9667 117.38C9.1921 117.749 9.36118 118.003 9.47392 118.143C9.58666 118.283 9.7195 118.409 9.87243 118.521C10.189 118.748 10.5481 118.85 10.9495 118.827C11.2936 118.807 11.5723 118.697 11.7856 118.496C11.9986 118.29 12.0967 118.041 12.0798 117.749C12.0649 117.494 11.9728 117.258 11.8034 117.043C11.6285 116.823 11.4047 116.663 11.1322 116.564C10.7735 116.423 10.2631 116.371 9.60094 116.41L8.29491 116.485Z" fill="#343A32"/>
<path d="M5.43843 106.922L5.52304 104.926L5.82045 104.939L5.73585 106.935L10.291 107.128C10.8388 107.151 11.2342 107.074 11.4769 106.896C11.6116 106.802 11.7188 106.676 11.7988 106.518C11.8787 106.359 11.9226 106.186 11.9306 105.998C11.9405 105.763 11.9018 105.565 11.8146 105.405C11.7221 105.244 11.552 105.064 11.3042 104.866L11.411 104.753C11.7167 104.938 11.9386 105.191 12.0767 105.51C12.215 105.824 12.2742 106.214 12.2546 106.678C12.2285 107.294 12.0894 107.737 11.8375 108.009C11.7058 108.155 11.5529 108.248 11.3787 108.287C11.1993 108.327 10.8827 108.337 10.4287 108.318L5.68575 108.117L5.65024 108.954L5.52502 108.949C5.42982 108.605 5.23177 108.283 4.93087 107.983C4.74511 107.802 4.56052 107.656 4.37711 107.544C4.18847 107.431 3.94483 107.321 3.64618 107.215L3.39122 107.126L3.40349 106.836L5.43843 106.922Z" fill="#343A32"/>
<path d="M6.13031 99.5768L6.13445 97.311L10.6261 97.8827L11.2177 97.9501C11.57 97.995 11.8316 98.0072 12.0027 97.9869C12.1686 97.9659 12.3135 97.9027 12.4375 97.7974C12.5958 97.6701 12.736 97.4169 12.8579 97.0375L13.0134 97.0573L12.5771 100.484L12.4217 100.465C12.4198 100.148 12.3912 99.9184 12.3358 99.7745C12.2753 99.6299 12.1596 99.5046 11.9888 99.3986C11.8769 99.3265 11.7031 99.2649 11.4675 99.2138C11.2273 99.1569 10.8792 99.0995 10.4233 99.0414L8.50388 98.7971C7.97027 98.7292 7.59561 98.6946 7.37991 98.6935C7.15902 98.6917 6.97562 98.7263 6.82972 98.7972C6.67345 98.8668 6.55631 98.9598 6.47832 99.0763C6.39514 99.192 6.33095 99.3655 6.28573 99.5966L6.13031 99.5768ZM3.28205 97.5717C3.25633 97.7738 3.17014 97.9339 3.02348 98.0521C2.87748 98.1651 2.70604 98.2091 2.50918 98.1841C2.31749 98.1597 2.16546 98.0719 2.05309 97.9207C1.93554 97.7689 1.88929 97.5945 1.91435 97.3976C1.93941 97.2008 2.02786 97.0436 2.17971 96.926C2.32637 96.8078 2.49554 96.7609 2.68723 96.7853C2.88409 96.8103 3.03871 96.8985 3.15108 97.0497C3.26411 97.1957 3.30777 97.3697 3.28205 97.5717Z" fill="#343A32"/>
<path d="M10.5244 91.5994C9.70085 91.4057 9.03795 90.928 8.53573 90.1661C7.92732 89.2398 7.74443 88.2606 7.98707 87.2286C8.2297 86.1966 8.82913 85.404 9.78536 84.851C10.5795 84.3939 11.3884 84.2622 12.212 84.4558C13.0254 84.647 13.6817 85.1071 14.1809 85.8361C14.7965 86.7319 14.9764 87.7238 14.7206 88.8117C14.4649 89.8997 13.8612 90.71 12.9098 91.2428C12.539 91.4507 12.1476 91.5867 11.7355 91.6507C11.3247 91.7097 10.921 91.6926 10.5244 91.5994ZM10.7669 90.1917C11.6514 90.3997 12.4479 90.3777 13.1563 90.1258C13.9478 89.8398 14.4195 89.374 14.5713 88.7283C14.6358 88.4538 14.6223 88.169 14.5307 87.8738C14.4392 87.5787 14.2782 87.3048 14.0479 87.0522C13.8099 86.787 13.4916 86.5431 13.0933 86.3207C12.6898 86.0971 12.2873 85.9381 11.8857 85.8437C11.4688 85.7457 11.0338 85.7132 10.5808 85.7461C10.1239 85.7728 9.71721 85.8596 9.36078 86.0065C8.68829 86.2883 8.28093 86.7317 8.1387 87.3367C8.00363 87.9112 8.18959 88.478 8.69656 89.0371C9.20233 89.6013 9.89243 89.9862 10.7669 90.1917Z" fill="#343A32"/>
<path d="M11.292 75.8107C11.6013 75.8487 11.8782 75.9137 12.1226 76.0055L12.24 76.0495C11.8712 75.2193 11.8438 74.3861 12.1578 73.5501C12.3929 72.9243 12.7287 72.4758 13.1652 72.2047C13.5951 71.9366 14.0764 71.9026 14.6093 72.1027L17.7188 73.2706C18.0512 73.3954 18.303 73.4677 18.4741 73.4873C18.6404 73.5052 18.796 73.4771 18.9409 73.4032C19.1243 73.3159 19.3191 73.1018 19.5252 72.7608L19.6719 72.8159L18.4572 76.05L18.3106 75.9949C18.3816 75.6869 18.4068 75.4564 18.3861 75.3036C18.3605 75.149 18.2768 75.0004 18.1351 74.8579C18.0429 74.7619 17.888 74.6619 17.6704 74.5578C17.4498 74.4471 17.1268 74.3118 16.7015 74.1521L15.1468 73.5682C14.6139 73.368 14.2154 73.2407 13.9514 73.1861C13.6892 73.1267 13.463 73.1199 13.2729 73.1656C13.0596 73.2138 12.867 73.3255 12.6951 73.5009C12.5184 73.6744 12.3823 73.8882 12.2868 74.1425C12.184 74.4163 12.1413 74.6931 12.1589 74.9731C12.1783 75.2482 12.2552 75.489 12.3896 75.6957C12.5301 75.9158 12.7158 76.0971 12.9468 76.2397C13.1747 76.3755 13.5747 76.5508 14.1467 76.7657L15.584 77.3055L16.1295 77.502C16.4619 77.6269 16.7137 77.6991 16.8849 77.7188C17.0511 77.7366 17.2067 77.7086 17.3516 77.6347C17.535 77.5474 17.7298 77.3332 17.936 76.9923L18.0826 77.0473L16.868 80.2814L16.7213 80.2263C16.7924 79.9183 16.8175 79.6879 16.7968 79.5351C16.7712 79.3804 16.6876 79.2318 16.5458 79.0893C16.4536 78.9933 16.2987 78.8933 16.0811 78.7893C15.8605 78.6785 15.5351 78.5424 15.1049 78.3808L13.2935 77.7004C12.7899 77.5113 12.4333 77.3913 12.2237 77.3405C12.0092 77.2878 11.8228 77.2791 11.6644 77.3145C11.4963 77.3462 11.3609 77.4097 11.2582 77.505C11.1505 77.5985 11.0481 77.7525 10.9508 77.967L10.8041 77.9119L11.292 75.8107Z" fill="#343A32"/>
<path d="M23.4539 52.5603L26.8629 54.8328L27.3627 55.1565C27.6582 55.3534 27.887 55.4809 28.0492 55.5388C28.2071 55.5938 28.365 55.6018 28.5229 55.5627C28.7213 55.5192 28.9596 55.3548 29.2377 55.0695L29.368 55.1564L27.4519 58.0309L27.3215 57.944C27.4606 57.6601 27.5373 57.4414 27.5518 57.2879C27.5619 57.1314 27.5141 56.9677 27.4084 56.7968C27.3403 56.6824 27.2121 56.5499 27.0238 56.3993C26.834 56.2414 26.5479 56.035 26.1655 55.7801L22.8021 53.5381L22.1721 54.4832L21.9244 54.3181L22.5544 53.373L20.964 52.3128C20.5815 52.0579 20.3114 51.8087 20.1535 51.5654C19.9985 51.3177 19.9116 51.0056 19.8927 50.629C19.8782 50.293 19.934 49.9316 20.06 49.5448C20.1845 49.1508 20.3684 48.7713 20.6118 48.4063C20.8377 48.0674 21.0774 47.8349 21.3309 47.7088C21.5844 47.5828 21.8089 47.585 22.0044 47.7153C22.1348 47.8022 22.2144 47.9181 22.2434 48.0629C22.2753 48.2034 22.2507 48.3345 22.1696 48.4562C22.0914 48.5735 21.9929 48.6554 21.8741 48.7017C21.751 48.7452 21.5888 48.7626 21.3874 48.7539C21.1064 48.7423 20.9094 48.7554 20.7965 48.793C20.6791 48.8278 20.5756 48.9125 20.4858 49.0473C20.3757 49.2124 20.3062 49.392 20.2772 49.5861C20.2439 49.7773 20.2541 49.9504 20.3077 50.1054C20.3685 50.2777 20.4873 50.4479 20.664 50.6159C20.8364 50.781 21.1094 50.9882 21.4832 51.2373L23.2105 52.3887L24.0665 51.1046L24.3142 51.2697L23.4539 52.5603Z" fill="#343A32"/>
<path d="M30.042 48.501C29.3929 47.9584 29.0148 47.234 28.9079 46.3278C28.7798 45.2269 29.0558 44.2698 29.7357 43.4564C30.4157 42.643 31.307 42.2037 32.4097 42.1385C33.3246 42.0864 34.1065 42.3317 34.7556 42.8743C35.3968 43.4102 35.7768 44.1159 35.8959 44.9914C36.044 46.0681 35.7597 47.0353 35.0429 47.8928C34.3261 48.7502 33.423 49.2036 32.3337 49.2527C31.9091 49.2721 31.4983 49.218 31.1013 49.0904C30.7076 48.9587 30.3545 48.7622 30.042 48.501ZM30.8903 47.3518C31.5875 47.9346 32.3091 48.2724 33.0552 48.3652C33.8909 48.4647 34.5214 48.2601 34.9468 47.7512C35.1277 47.5348 35.2434 47.2742 35.294 46.9694C35.3447 46.6645 35.3237 46.3476 35.2313 46.0184C35.1375 45.6746 34.9626 45.3139 34.7064 44.9364C34.4462 44.5555 34.1578 44.2328 33.8412 43.9682C33.5127 43.6935 33.1386 43.4693 32.7189 43.2955C32.2986 43.1143 31.8962 43.0093 31.5118 42.9807C30.7843 42.9308 30.2213 43.1442 29.8227 43.621C29.4442 44.0738 29.3561 44.6638 29.5583 45.3909C29.7571 46.1221 30.2011 46.7757 30.8903 47.3518Z" fill="#343A32"/>
<path d="M38.6046 35.6939C38.5134 35.3261 38.495 35.0006 38.5496 34.7175C38.6504 34.1953 38.901 33.743 39.3014 33.3608C39.5469 33.1264 39.7862 33.0026 40.0192 32.9896C40.2301 32.976 40.404 33.041 40.5411 33.1845C40.642 33.2903 40.6891 33.4114 40.6822 33.548C40.6792 33.6809 40.6228 33.7996 40.5133 33.9042C40.3849 34.0268 40.2229 34.0803 40.0275 34.0647L39.668 34.0397C39.3876 34.0258 39.1529 34.109 38.964 34.2893C38.7072 34.5346 38.6656 34.8919 38.8394 35.3614C39.0132 35.8308 39.3832 36.3621 39.9494 36.9551L40.961 38.0147L41.3777 38.44C41.623 38.6968 41.8184 38.8713 41.964 38.9633C42.106 39.0516 42.2583 39.0939 42.4209 39.0903C42.6241 39.0913 42.8925 38.983 43.2263 38.7654L43.3345 38.8787L40.8357 41.2643L40.7275 41.1509C40.9253 40.9043 41.0481 40.7077 41.0958 40.5611C41.1399 40.4106 41.1291 40.2405 41.0633 40.0506C41.022 39.924 40.9259 39.7666 40.7751 39.5785C40.6245 39.3829 40.3905 39.1189 40.0732 38.7865L38.7371 37.3869C38.3656 36.9978 38.0965 36.7349 37.9298 36.598C37.7594 36.4574 37.5953 36.3686 37.4373 36.3317C37.2721 36.2873 37.1225 36.2856 36.9886 36.3269C36.8511 36.3643 36.6919 36.4585 36.5111 36.6094L36.4029 36.4961L37.6644 34.9019C38.0568 35.1844 38.3701 35.4484 38.6046 35.6939Z" fill="#343A32"/>
<path d="M57.5946 27.6L57.5054 27.4434C57.7609 27.28 57.9513 27.1235 58.0766 26.9741C58.2038 26.8175 58.2925 26.6408 58.3427 26.444C58.4053 26.2161 58.3982 25.9767 58.3215 25.7259C58.2449 25.4751 58.0735 25.1159 57.8074 24.6485L54.9512 19.631C54.6851 19.1635 54.4637 18.8328 54.2872 18.6388C54.1107 18.4448 53.9085 18.3166 53.6806 18.254C53.4831 18.1922 53.2859 18.1782 53.0889 18.2122C52.8919 18.2462 52.6602 18.3301 52.3938 18.4637L52.3046 18.3071L56.7775 15.761C57.2313 15.5026 57.5312 15.3379 57.677 15.2669C58.2177 15.0132 58.7164 14.8916 59.173 14.9021C59.5714 14.9157 59.934 15.0248 60.2607 15.2294C60.5921 15.4314 60.8624 15.7162 61.0716 16.0838C61.4101 16.6784 61.504 17.2709 61.3534 17.8615C61.3019 18.0771 61.2193 18.2804 61.1056 18.4713C60.9893 18.6576 60.8047 18.898 60.5515 19.1923C61.0286 19.0169 61.4119 18.9038 61.7016 18.8531C61.9912 18.8024 62.2775 18.7987 62.5605 18.8419C62.9853 18.9126 63.3779 19.0797 63.7383 19.3433C64.1006 19.5997 64.3981 19.9322 64.6306 20.3407C64.8657 20.7537 64.9975 21.1805 65.0259 21.621C65.0563 22.0544 64.9834 22.4595 64.8072 22.8362C64.6454 23.1747 64.399 23.4862 64.0682 23.7707C63.7419 24.0526 63.2429 24.3847 62.5712 24.7671L57.5946 27.6ZM55.3454 16.8556L57.6474 20.8996L58.1988 20.5857C58.4575 20.4384 58.715 20.2678 58.9712 20.0739C59.191 19.9006 59.3594 19.7477 59.4762 19.6151C59.5976 19.4799 59.695 19.3344 59.7684 19.1784C59.9017 18.8741 59.9534 18.5532 59.9235 18.2157C59.8956 17.8711 59.7886 17.5353 59.6026 17.2085C59.4062 16.8636 59.1544 16.5743 58.8471 16.3406C58.5417 16.0998 58.2333 15.9538 57.9218 15.9028C57.6505 15.8589 57.379 15.8783 57.1075 15.9607C56.8405 16.0406 56.4642 16.2188 55.9785 16.4952L55.3454 16.8556ZM57.7675 21.1106L59.3642 23.9155C59.5579 24.2559 59.737 24.5176 59.9012 24.7005C60.07 24.8809 60.2501 25.0126 60.4417 25.0959C60.8463 25.2682 61.33 25.1942 61.8928 24.8738C62.6235 24.4579 63.0862 23.93 63.281 23.2904C63.4802 22.6481 63.3835 21.982 62.9908 21.2922C62.7661 20.8973 62.4923 20.5694 62.1695 20.3085C61.8441 20.043 61.5185 19.8828 61.1928 19.8278C60.5931 19.7245 59.8576 19.9209 58.9861 20.4169L57.7675 21.1106Z" fill="#343A32"/>
<path d="M70.7423 15.9816C70.818 16.2269 70.8773 16.4029 70.92 16.5096C71.089 16.9313 71.3147 17.3191 71.5972 17.6729C71.8844 18.0248 72.1881 18.2913 72.5083 18.4724C72.8352 18.6565 73.1897 18.762 73.5718 18.7889C73.9588 18.8139 74.3292 18.7555 74.6831 18.6137C74.9449 18.5088 75.1746 18.3661 75.3724 18.1856C75.575 18.0032 75.7227 17.8033 75.8157 17.586C75.9222 17.3464 75.9637 17.0147 75.9402 16.5909L76.106 16.5836C76.2073 17.2013 76.1077 17.7391 75.8073 18.197C75.5099 18.6481 75.017 19.0116 74.3286 19.2874C73.7323 19.5264 73.183 19.6368 72.6806 19.6186C72.1782 19.6005 71.7005 19.4544 71.2475 19.1802C70.6159 18.7975 70.1399 18.2062 69.8194 17.4063C69.3823 16.3156 69.4297 15.3036 69.9616 14.3703C70.3481 13.6922 70.905 13.2074 71.6321 12.9161C72.02 12.7607 72.4069 12.6872 72.7928 12.6957C73.1769 12.6994 73.5353 12.7864 73.868 12.9569C74.3851 13.2223 74.766 13.6605 75.0107 14.2713L70.7423 15.9816ZM73.8136 14.4218C73.5854 13.9506 73.3462 13.6133 73.0958 13.4098C72.8698 13.2247 72.6205 13.108 72.3479 13.0597C72.0734 13.0065 71.8126 13.0294 71.5653 13.1285C71.1484 13.2956 70.8543 13.6216 70.6829 14.1066C70.5164 14.5896 70.5129 15.1143 70.6722 15.6806L73.8136 14.4218Z" fill="#343A32"/>
<path d="M88.2442 13.8813L88.3933 13.9221C88.3553 14.5005 88.0112 14.8779 87.361 15.0542C87.0031 15.1512 86.6818 15.1437 86.3971 15.0315C86.2094 14.9579 85.9934 14.8 85.7492 14.5578C85.4935 14.9518 85.2929 15.2199 85.1475 15.3622C84.8691 15.6325 84.5131 15.8264 84.0796 15.9439C83.5252 16.0942 83.0479 16.0802 82.6478 15.9019C82.2528 15.7222 81.9938 15.4056 81.8708 14.9519C81.7574 14.5336 81.796 14.147 81.9866 13.7923C82.0954 13.5951 82.2358 13.4245 82.4078 13.2804C82.5784 13.1314 82.8373 12.9584 83.1843 12.7615C83.5927 12.5317 83.8901 12.351 84.0762 12.2193C84.2674 12.0863 84.4192 11.9478 84.5317 11.8036C84.6615 11.644 84.7355 11.4778 84.7536 11.3052C84.7718 11.1325 84.7432 10.9076 84.6681 10.6303C84.5082 10.0406 84.2804 9.63971 83.9849 9.42765C83.8499 9.32898 83.6915 9.2637 83.5097 9.23182C83.3329 9.19858 83.1589 9.20519 82.9875 9.25166C82.7808 9.30769 82.6112 9.4105 82.4786 9.56008C82.346 9.70967 82.2647 9.88864 82.2346 10.097L82.1645 10.5868C82.1279 10.851 81.9786 11.0187 81.7165 11.0897C81.5451 11.1362 81.3864 11.1197 81.2404 11.0402C81.093 10.9557 80.9961 10.8278 80.9496 10.6564C80.8799 10.3994 81.0026 10.1334 81.3177 9.85861C81.4897 9.71458 81.7118 9.57589 81.9841 9.44255C82.2601 9.3028 82.5366 9.19534 82.8139 9.12017C83.1264 9.03544 83.4624 8.98762 83.822 8.9767C84.1816 8.96578 84.4919 8.99258 84.7529 9.05709C85.1311 9.15476 85.4008 9.34135 85.5621 9.61688C85.6434 9.75716 85.7326 10.0062 85.8296 10.3641L86.5881 13.1616C86.7166 13.6354 86.8242 13.9525 86.911 14.113C87.0937 14.4476 87.3489 14.5705 87.6765 14.4817C87.8328 14.4393 87.9462 14.3788 88.0169 14.3001C88.0926 14.2201 88.1683 14.0805 88.2442 13.8813ZM84.9415 11.5789C84.7308 11.8795 84.4849 12.1599 84.2037 12.4201C83.8891 12.7165 83.6748 12.9342 83.561 13.0733C83.4472 13.2123 83.3515 13.3682 83.2738 13.5407C83.1162 13.8973 83.09 14.2697 83.1952 14.6578C83.2854 14.9905 83.4506 15.2406 83.6908 15.4081C83.9361 15.5743 84.1999 15.6191 84.4821 15.5426C84.7291 15.4756 84.9405 15.3371 85.1162 15.1271C85.2956 14.9108 85.406 14.659 85.4471 14.3719C85.5118 13.9918 85.4574 13.4817 85.2838 12.8415L84.9415 11.5789Z" fill="#343A32"/>
<path d="M98.3873 12.9785C98.275 12.6782 98.1952 12.3652 98.1478 12.0396C97.595 12.7744 96.8767 13.2061 95.993 13.3346C95.347 13.4286 94.8046 13.3465 94.366 13.0884C93.9385 12.8339 93.6834 12.4224 93.6007 11.8539L93.2084 9.15616L93.1149 8.56812C93.0638 8.21669 93.0059 7.96387 92.9413 7.80967C92.8766 7.65548 92.7792 7.5298 92.649 7.43263C92.4788 7.31489 92.195 7.25061 91.7976 7.2398L91.774 7.077L94.0454 6.74667L94.617 10.677C94.6974 11.23 94.7752 11.6382 94.8505 11.9017C94.9302 12.1593 95.0341 12.3658 95.1622 12.5213C95.3015 12.6805 95.4846 12.7964 95.7115 12.8689C95.9377 12.9363 96.1826 12.9508 96.4461 12.9125C96.7355 12.8704 96.9986 12.7741 97.2353 12.6236C97.472 12.473 97.6484 12.2891 97.7646 12.0716C97.8851 11.8483 97.9495 11.6014 97.9577 11.3311C97.971 11.06 97.9337 10.6221 97.8458 10.0175L97.6248 8.49803L97.5337 7.9255C97.4825 7.57407 97.4247 7.32125 97.36 7.16705C97.3005 7.0121 97.2031 6.88642 97.0677 6.79001C96.9027 6.67152 96.6189 6.60724 96.2164 6.59717L96.1927 6.43438L98.4641 6.10405L99.0763 10.3135C99.1537 10.8458 99.2211 11.2186 99.2785 11.4319C99.3403 11.6393 99.4224 11.8041 99.5246 11.9265C99.6387 12.0577 99.7626 12.1478 99.8964 12.197C100.029 12.241 100.213 12.2538 100.448 12.2355L100.471 12.3905L98.3873 12.9785Z" fill="#343A32"/>
<path d="M107.226 5.43775L109.222 5.36564L109.233 5.66313L107.237 5.73524L107.401 10.2915C107.421 10.8395 107.529 11.2275 107.726 11.4556C107.829 11.5825 107.964 11.6796 108.128 11.7468C108.292 11.814 108.469 11.8442 108.656 11.8374C108.891 11.829 109.085 11.7749 109.239 11.6753C109.392 11.5705 109.557 11.3868 109.736 11.1243L109.857 11.2218C109.696 11.5412 109.462 11.7822 109.154 11.9449C108.852 12.1074 108.468 12.197 108.004 12.2138C107.388 12.236 106.935 12.1322 106.644 11.9023C106.488 11.7825 106.384 11.6373 106.331 11.4668C106.277 11.291 106.242 10.9761 106.226 10.5221L106.055 5.77794L105.217 5.80819L105.212 5.68294C105.548 5.56108 105.853 5.3384 106.129 5.01489C106.294 4.81556 106.426 4.62007 106.523 4.42841C106.621 4.23153 106.711 3.98005 106.794 3.67395L106.863 3.41277L107.152 3.40231L107.226 5.43775Z" fill="#343A32"/>
<path d="M114.602 5.55152L116.861 5.37802L116.644 9.90067L116.623 10.4957C116.606 10.8504 116.614 11.1123 116.648 11.2812C116.682 11.4449 116.756 11.5844 116.871 11.6998C117.01 11.8476 117.273 11.9675 117.661 12.0594L117.654 12.2159L114.203 12.0497L114.21 11.8932C114.525 11.8665 114.753 11.8199 114.892 11.7534C115.031 11.6817 115.147 11.5566 115.239 11.378C115.302 11.2608 115.35 11.0827 115.383 10.8438C115.42 10.5999 115.45 10.2484 115.473 9.78935L115.566 7.85666C115.592 7.31937 115.597 6.94316 115.581 6.72803C115.565 6.50768 115.516 6.32756 115.434 6.18766C115.353 6.03733 115.251 5.92785 115.129 5.85922C115.007 5.78537 114.829 5.73497 114.595 5.70801L114.602 5.55152ZM116.378 2.55485C116.174 2.54505 116.008 2.47167 115.879 2.33473C115.755 2.19803 115.697 2.03058 115.707 1.83235C115.716 1.63934 115.792 1.4809 115.934 1.35702C116.076 1.22793 116.246 1.16816 116.444 1.17771C116.642 1.18726 116.806 1.26311 116.935 1.40528C117.065 1.54222 117.125 1.7072 117.115 1.9002C117.106 2.09843 117.03 2.25948 116.888 2.38336C116.751 2.50748 116.581 2.56465 116.378 2.55485Z" fill="#343A32"/>
<path d="M125.295 6.6023L124.754 10.6635L124.683 11.2547C124.636 11.6067 124.622 11.8683 124.642 12.0395C124.662 12.2055 124.724 12.3507 124.829 12.4753C124.955 12.6344 125.207 12.776 125.586 12.9002L125.565 13.0555L122.141 12.5995L122.162 12.4442C122.478 12.4441 122.708 12.4168 122.852 12.3623C122.997 12.3025 123.123 12.1876 123.23 12.0174C123.303 11.906 123.365 11.7325 123.418 11.4972C123.476 11.2573 123.536 10.9096 123.596 10.454L124.13 6.4472L123.004 6.29726L123.043 6.00219L124.169 6.15212L124.421 4.25742C124.482 3.80186 124.587 3.44966 124.736 3.20081C124.89 2.95265 125.132 2.73726 125.462 2.55464C125.758 2.39377 126.107 2.28483 126.509 2.22781C126.918 2.16632 127.34 2.16452 127.775 2.22243C128.178 2.27619 128.493 2.38917 128.717 2.56134C128.942 2.73351 129.039 2.93608 129.008 3.16903C128.987 3.32433 128.918 3.44686 128.801 3.53661C128.689 3.62705 128.56 3.66261 128.415 3.64331C128.275 3.6247 128.159 3.57226 128.065 3.486C127.971 3.39456 127.884 3.25653 127.804 3.07191C127.69 2.81448 127.592 2.64332 127.509 2.55844C127.426 2.46838 127.304 2.41266 127.144 2.39129C126.947 2.36509 126.755 2.38169 126.568 2.44108C126.382 2.4953 126.231 2.58056 126.115 2.69689C125.987 2.82736 125.886 3.0089 125.813 3.24152C125.741 3.46896 125.675 3.80528 125.616 4.25049L125.342 6.30826L126.871 6.51196L126.832 6.80704L125.295 6.6023Z" fill="#343A32"/>
<path d="M136.238 15.3537C136.246 15.0332 136.29 14.7132 136.368 14.3936C135.58 14.8669 134.752 14.9972 133.885 14.7843C133.251 14.6286 132.779 14.3488 132.47 13.9448C132.169 13.5484 132.087 13.0712 132.224 12.5133L132.874 9.86576L133.008 9.2857C133.093 8.94081 133.134 8.68477 133.132 8.51758C133.13 8.35039 133.087 8.19731 133.003 8.05834C132.89 7.88529 132.651 7.71912 132.286 7.55981L132.326 7.40005L134.555 7.9472L133.608 11.8044C133.475 12.3471 133.394 12.7547 133.364 13.0271C133.341 13.2957 133.36 13.5262 133.42 13.7185C133.49 13.9183 133.616 14.0945 133.799 14.2469C133.983 14.3944 134.205 14.4998 134.463 14.5633C134.747 14.633 135.027 14.6426 135.303 14.592C135.579 14.5414 135.812 14.4372 136.001 14.2793C136.197 14.1176 136.349 13.913 136.458 13.6656C136.573 13.4193 136.702 12.9995 136.848 12.4061L137.214 10.915L137.345 10.3501C137.429 10.0052 137.471 9.74919 137.469 9.582C137.472 9.41605 137.429 9.26297 137.339 9.12276C137.231 8.95096 136.992 8.78478 136.623 8.62423L136.662 8.46447L138.891 9.01162L137.877 13.1427C137.749 13.6651 137.671 14.0359 137.645 14.2552C137.624 14.4706 137.638 14.6542 137.687 14.806C137.743 14.9704 137.824 15.1005 137.93 15.1963C138.037 15.2871 138.202 15.3681 138.427 15.4393L138.389 15.5915L136.238 15.3537Z" fill="#343A32"/>
<path d="M146.793 7.19712L149.004 7.69208L146.048 15.9194L145.854 16.4823C145.733 16.8165 145.665 17.0693 145.648 17.2407C145.632 17.4072 145.662 17.5623 145.738 17.7062C145.828 17.8883 146.045 18.08 146.389 18.2813L146.336 18.4288L143.085 17.2604L143.138 17.113C143.447 17.1796 143.678 17.2015 143.83 17.1786C143.985 17.1508 144.132 17.065 144.272 16.9213C144.367 16.8277 144.465 16.6714 144.566 16.4523C144.673 16.2302 144.805 15.9029 144.96 15.4704L147.04 9.68325C147.22 9.18194 147.335 8.82366 147.385 8.60841C147.434 8.39316 147.44 8.20663 147.403 8.04882C147.369 7.88119 147.303 7.74668 147.206 7.64532C147.11 7.54395 146.953 7.44615 146.737 7.35193L146.793 7.19712Z" fill="#343A32"/>
<path d="M167.376 22.5399L171.986 25.6516L173.393 23.5673C173.694 23.1214 173.89 22.7749 173.981 22.5277C174.077 22.2835 174.104 22.0468 174.064 21.8177C174.027 21.6104 173.95 21.426 173.832 21.2645C173.719 21.106 173.541 20.9355 173.299 20.7531L173.399 20.6037L177.548 23.4042L177.448 23.5535C177.192 23.4 176.967 23.2987 176.774 23.2498C176.584 23.2038 176.386 23.2027 176.18 23.2464C175.953 23.2944 175.74 23.409 175.542 23.5904C175.351 23.7704 175.107 24.0811 174.809 24.5227L171.579 29.3081C171.281 29.7496 171.084 30.0925 170.988 30.3367C170.897 30.5839 170.87 30.8242 170.908 31.0576C170.948 31.2606 171.023 31.4436 171.133 31.6064C171.251 31.7679 171.429 31.9384 171.667 32.1179L171.566 32.2672L167.417 29.4668L167.518 29.3174C167.778 29.4739 168.002 29.5752 168.192 29.6211C168.389 29.6657 168.588 29.6683 168.792 29.6289C169.019 29.581 169.228 29.467 169.419 29.287C169.614 29.11 169.862 28.7985 170.163 28.3527L171.78 25.9567L167.17 22.8451L165.553 25.2411C165.255 25.6826 165.057 26.0276 164.958 26.2762C164.867 26.5234 164.842 26.7615 164.883 26.9906C164.918 27.1907 164.991 27.3722 165.101 27.535C165.219 27.6965 165.399 27.8684 165.641 28.0509L165.541 28.2002L161.392 25.3998L161.492 25.2504C161.752 25.4069 161.977 25.5081 162.166 25.5541C162.363 25.5987 162.561 25.5998 162.759 25.5575C162.991 25.5125 163.203 25.4 163.394 25.22C163.584 25.0401 163.83 24.7271 164.131 24.2813L167.361 19.4959C167.662 19.05 167.86 18.705 167.956 18.4607C168.051 18.2165 168.077 17.9783 168.032 17.7463C168 17.5419 167.925 17.359 167.807 17.1975C167.689 17.0361 167.511 16.8656 167.273 16.686L167.374 16.5367L171.523 19.3372L171.422 19.4865C171.167 19.3329 170.942 19.2317 170.748 19.1828C170.559 19.1368 170.361 19.1357 170.155 19.1794C169.927 19.2274 169.714 19.342 169.516 19.5234C169.326 19.7034 169.081 20.0141 168.783 20.4557L167.376 22.5399Z" fill="#343A32"/>
<path d="M180.934 39.502L180.98 39.6495C180.472 39.9286 179.969 39.8415 179.47 39.3882C179.196 39.1387 179.03 38.8637 178.971 38.5633C178.932 38.3656 178.949 38.0986 179.022 37.7624C178.552 37.7587 178.218 37.7339 178.02 37.6878C177.642 37.5984 177.288 37.4026 176.955 37.1004C176.53 36.7138 176.285 36.304 176.221 35.8708C176.16 35.4411 176.287 35.0524 176.604 34.7048C176.895 34.3841 177.242 34.2088 177.643 34.1787C177.868 34.1643 178.088 34.1909 178.302 34.2585C178.519 34.3221 178.804 34.4473 179.157 34.6339C179.57 34.8547 179.882 35.0081 180.093 35.0943C180.308 35.1839 180.507 35.2374 180.689 35.2546C180.893 35.2782 181.073 35.2513 181.228 35.1737C181.384 35.0961 181.558 34.951 181.751 34.7386C182.163 34.2866 182.378 33.879 182.398 33.5157C182.408 33.3489 182.378 33.1802 182.307 33.0098C182.24 32.8429 182.141 32.6997 182.01 32.5803C181.851 32.4362 181.673 32.3485 181.476 32.3171C181.279 32.2858 181.084 32.3135 180.892 32.4002L180.442 32.6045C180.199 32.7158 179.977 32.6801 179.777 32.4973C179.645 32.3778 179.574 32.2352 179.562 32.0694C179.554 31.8997 179.61 31.7492 179.729 31.6178C179.909 31.4208 180.199 31.3812 180.6 31.499C180.814 31.5665 181.05 31.6792 181.309 31.837C181.575 31.9945 181.815 32.1699 182.027 32.3632C182.267 32.581 182.488 32.8386 182.69 33.1359C182.893 33.4332 183.037 33.7091 183.123 33.9639C183.244 34.3352 183.232 34.663 183.087 34.9472C183.012 35.0912 182.85 35.3003 182.601 35.5746L180.65 37.7187C180.32 38.0818 180.11 38.3431 180.022 38.5026C179.838 38.8366 179.872 39.1178 180.123 39.3462C180.242 39.4552 180.354 39.5183 180.459 39.5355C180.567 39.5563 180.725 39.5451 180.934 39.502ZM181.099 35.4793C180.732 35.4633 180.363 35.4068 179.993 35.3097C179.574 35.2039 179.275 35.1404 179.096 35.1192C178.918 35.0981 178.735 35.1012 178.548 35.1285C178.162 35.1874 177.834 35.3656 177.564 35.6631C177.332 35.918 177.21 36.1918 177.198 36.4845C177.19 36.7806 177.294 37.0271 177.51 37.2239C177.699 37.3961 177.93 37.4998 178.201 37.535C178.48 37.5699 178.752 37.5275 179.016 37.4078C179.371 37.2579 179.772 36.9376 180.218 36.447L181.099 35.4793Z" fill="#343A32"/>
<path d="M188.404 38.964L190.123 40.4403L186.768 43.4813L186.332 43.887C186.069 44.1255 185.89 44.3163 185.794 44.4595C185.702 44.5992 185.656 44.7504 185.655 44.913C185.649 45.1161 185.75 45.3872 185.959 45.7266L185.843 45.8318L183.523 43.2722L183.639 43.167C183.88 43.3711 184.074 43.4989 184.219 43.5504C184.368 43.5984 184.539 43.5919 184.73 43.5311C184.858 43.493 185.018 43.401 185.21 43.2551C185.409 43.1096 185.679 42.8825 186.02 42.5739L187.453 41.2744C187.852 40.9131 188.122 40.6509 188.263 40.4877C188.408 40.3211 188.501 40.1593 188.542 40.0023C188.59 39.8383 188.596 39.6888 188.558 39.5539C188.524 39.4154 188.434 39.2539 188.288 39.0692L188.404 38.964ZM191.779 38.1036C191.642 37.9527 191.577 37.7831 191.582 37.5948C191.591 37.4104 191.669 37.2515 191.817 37.1182C191.96 36.9885 192.125 36.93 192.313 36.9429C192.505 36.9524 192.667 37.0306 192.801 37.1776C192.934 37.3247 192.996 37.4941 192.987 37.6859C192.981 37.8742 192.907 38.0332 192.764 38.163C192.616 38.2962 192.449 38.3564 192.261 38.3435C192.077 38.3345 191.916 38.2545 191.779 38.1036Z" fill="#343A32"/>
<path d="M194.535 47.6874C194.911 47.6386 195.237 47.6575 195.512 47.744C196.019 47.9035 196.44 48.204 196.774 48.6453C196.979 48.9159 197.075 49.1677 197.061 49.4007C197.051 49.6118 196.966 49.7772 196.808 49.897C196.692 49.9853 196.566 50.0182 196.431 49.9959C196.299 49.9777 196.188 49.9082 196.096 49.7875C195.989 49.6459 195.954 49.479 195.992 49.2866L196.058 48.9322C196.104 48.6552 196.048 48.4126 195.89 48.2044C195.676 47.9213 195.325 47.8394 194.839 47.9586C194.353 48.0778 193.783 48.3849 193.129 48.8799L191.961 49.7643L191.492 50.1299C191.208 50.3443 191.013 50.5186 190.905 50.6528C190.801 50.7839 190.742 50.9304 190.727 51.0923C190.703 51.294 190.78 51.5731 190.958 51.9295L190.833 52.0241L188.747 49.2699L188.872 49.1753C189.095 49.3999 189.276 49.5443 189.416 49.6084C189.561 49.6693 189.731 49.678 189.927 49.6342C190.058 49.6075 190.225 49.53 190.429 49.4016C190.641 49.2742 190.929 49.0718 191.296 48.7944L192.838 47.6263C193.267 47.3016 193.559 47.0642 193.714 46.9141C193.873 46.7608 193.98 46.6078 194.035 46.4551C194.098 46.296 194.116 46.1476 194.091 46.0099C194.069 45.869 193.994 45.7001 193.864 45.5033L193.989 45.4087L195.429 46.8435C195.104 47.2012 194.806 47.4825 194.535 47.6874Z" fill="#343A32"/>
<path d="M203.718 73.1596L203.701 73.3132C203.124 73.3672 202.697 73.087 202.42 72.4728C202.268 72.1348 202.225 71.8163 202.29 71.5174C202.333 71.3205 202.455 71.0823 202.656 70.8029C202.226 70.6126 201.93 70.4569 201.766 70.3358C201.455 70.1036 201.208 69.7828 201.023 69.3733C200.787 68.8496 200.725 68.3761 200.838 67.9529C200.953 67.5345 201.225 67.2286 201.654 67.0355C202.049 66.8574 202.437 66.8344 202.817 66.9666C203.029 67.0429 203.22 67.1546 203.389 67.3016C203.563 67.4465 203.775 67.6748 204.024 67.9863C204.316 68.3533 204.541 68.6183 204.7 68.7813C204.862 68.9491 205.023 69.0771 205.183 69.1654C205.361 69.2684 205.537 69.3152 205.71 69.3058C205.883 69.2964 206.101 69.2327 206.363 69.1146C206.92 68.8636 207.28 68.5753 207.443 68.2499C207.519 68.1011 207.558 67.9344 207.561 67.7498C207.566 67.57 207.532 67.3992 207.459 67.2373C207.371 67.0421 207.242 66.8908 207.074 66.7836C206.905 66.6763 206.715 66.6242 206.505 66.6275L206.01 66.6356C205.744 66.6413 205.554 66.5203 205.443 66.2727C205.37 66.1108 205.361 65.9515 205.416 65.7948C205.477 65.636 205.588 65.52 205.75 65.4471C205.992 65.3376 206.274 65.4167 206.595 65.6844C206.765 65.8315 206.937 66.0289 207.112 66.2767C207.293 66.5271 207.443 66.7832 207.561 67.0451C207.694 67.3403 207.794 67.6645 207.862 68.0179C207.93 68.3712 207.952 68.6818 207.93 68.9497C207.893 69.3386 207.752 69.6344 207.505 69.8372C207.379 69.9397 207.147 70.0671 206.809 70.2195L204.167 71.4106C203.719 71.6123 203.423 71.7687 203.279 71.8797C202.977 72.1131 202.896 72.3844 203.035 72.6939C203.102 72.8415 203.18 72.944 203.269 73.0013C203.36 73.0634 203.509 73.1162 203.718 73.1596ZM205.469 69.5345C205.139 69.374 204.824 69.1755 204.522 68.939C204.18 68.6751 203.931 68.498 203.776 68.4076C203.62 68.3172 203.451 68.2473 203.269 68.1979C202.892 68.0986 202.52 68.1315 202.153 68.2968C201.839 68.4384 201.618 68.6411 201.491 68.9048C201.365 69.1732 201.363 69.4407 201.483 69.7074C201.588 69.9407 201.758 70.1275 201.993 70.2678C202.235 70.4108 202.501 70.4799 202.792 70.4752C203.177 70.479 203.672 70.3447 204.277 70.0721L205.469 69.5345Z" fill="#343A32"/>
<path d="M211.802 77.7047C211.535 77.8649 211.277 77.984 211.027 78.0619L210.908 78.0994C211.709 78.5272 212.243 79.1673 212.51 80.0197C212.709 80.6577 212.72 81.2178 212.543 81.7001C212.369 82.1759 212.01 82.4988 211.467 82.6687L208.297 83.6602C207.958 83.7662 207.715 83.864 207.568 83.9538C207.426 84.042 207.32 84.1598 207.251 84.3072C207.161 84.4888 207.139 84.7775 207.186 85.1731L207.036 85.2199L206.005 81.9227L206.155 81.876C206.288 82.1626 206.41 82.3597 206.52 82.4675C206.635 82.5737 206.793 82.6394 206.992 82.6646C207.124 82.6836 207.308 82.6672 207.543 82.6154C207.785 82.5671 208.123 82.4751 208.557 82.3394L210.142 81.8437C210.685 81.6738 211.078 81.5291 211.319 81.4098C211.563 81.2954 211.745 81.1617 211.867 81.0087C212.005 80.8395 212.089 80.6329 212.116 80.3889C212.149 80.1434 212.125 79.8911 212.044 79.6319C211.956 79.3528 211.82 79.1082 211.634 78.8983C211.449 78.6933 211.24 78.5507 211.007 78.4704C210.761 78.3832 210.503 78.3545 210.233 78.3841C209.97 78.4172 209.547 78.5249 208.964 78.7073L207.498 79.1657L206.947 79.3462C206.609 79.4522 206.366 79.5501 206.218 79.6398C206.076 79.728 205.971 79.8458 205.902 79.9932C205.811 80.1748 205.789 80.4635 205.837 80.8591L205.687 80.9059L204.656 77.6087L204.805 77.562C204.939 77.8486 205.061 78.0458 205.171 78.1535C205.286 78.2597 205.444 78.3254 205.643 78.3506C205.775 78.3696 205.958 78.3532 206.194 78.3014C206.436 78.2531 206.776 78.1603 207.215 78.0231L209.062 77.4455C209.575 77.285 209.93 77.1603 210.127 77.0714C210.328 76.981 210.48 76.8732 210.584 76.7479C210.697 76.6196 210.764 76.4862 210.787 76.3479C210.814 76.208 210.8 76.0235 210.745 75.7946L210.895 75.7478L211.802 77.7047Z" fill="#343A32"/>
<path d="M208.935 95.4989C209.178 95.4029 209.44 95.33 209.723 95.2801C209.409 94.9431 209.168 94.6144 209 94.294C208.833 93.9788 208.716 93.6283 208.648 93.2426C208.51 92.4609 208.626 91.751 208.996 91.1129C209.231 90.7054 209.556 90.367 209.97 90.0977C210.389 89.8275 210.866 89.6452 211.401 89.5508C211.966 89.4509 212.506 89.4616 213.021 89.5829C213.541 89.7032 213.993 89.9204 214.377 90.2344C214.974 90.7335 215.344 91.3868 215.487 92.1943C215.556 92.5851 215.558 92.9294 215.494 93.2271C215.43 93.5248 215.281 93.8851 215.049 94.3081L217.911 93.8028C218.471 93.7038 218.859 93.54 219.073 93.3112C219.287 93.0825 219.356 92.7547 219.281 92.3279L219.466 92.2952L220.182 94.5949L211.241 96.1735C210.66 96.2761 210.263 96.4417 210.048 96.6705C209.834 96.8992 209.765 97.227 209.84 97.6539L209.647 97.6879L208.935 95.4989ZM212.495 94.7589C213.21 94.6327 213.739 94.5074 214.083 94.383C214.432 94.2578 214.706 94.0954 214.904 93.8961C215.075 93.7227 215.199 93.5073 215.275 93.2498C215.353 92.9975 215.37 92.7479 215.326 92.5011C215.229 91.9508 214.888 91.5204 214.303 91.2101C213.951 91.0228 213.55 90.8975 213.099 90.834C212.648 90.7756 212.197 90.7864 211.744 90.8663C211.302 90.9444 210.879 91.0854 210.474 91.2893C210.075 91.4924 209.744 91.7312 209.479 92.006C209.023 92.4843 208.844 93.0038 208.943 93.5643C208.99 93.8318 209.102 94.0745 209.279 94.2927C209.455 94.5108 209.675 94.6735 209.937 94.7809C210.212 94.8916 210.534 94.946 210.905 94.9442C211.281 94.9414 211.811 94.8797 212.495 94.7589Z" fill="#343A32"/>
<path d="M220.286 125.309L216.885 125.083L216.886 124.902C218.074 124.652 218.976 124.273 219.59 123.764C220.21 123.256 220.557 122.604 220.632 121.809C220.691 121.19 220.613 120.645 220.401 120.174C220.193 119.708 219.824 119.257 219.293 118.818C218.207 117.929 216.918 117.414 215.426 117.273C214.714 117.206 214.032 117.236 213.38 117.364C212.733 117.492 212.151 117.712 211.633 118.025C210.632 118.634 210.084 119.44 209.989 120.443C209.952 120.838 210 121.218 210.133 121.582C210.267 121.946 210.469 122.254 210.739 122.505C211.115 122.85 211.582 123.048 212.138 123.101C212.653 123.149 213.038 123.044 213.293 122.785C213.548 122.531 213.706 122.084 213.766 121.445L213.945 121.461L213.476 126.437L213.297 126.42C213.298 125.959 213.264 125.63 213.193 125.435C213.127 125.245 212.994 125.096 212.794 124.988C212.575 124.868 212.125 124.775 211.443 124.711C211.256 124.694 210.964 124.677 210.567 124.66L210.386 124.659C210.478 124.468 210.528 124.326 210.537 124.232C210.547 124.118 210.501 123.967 210.398 123.779C210.129 123.297 209.939 122.749 209.829 122.136C209.719 121.522 209.696 120.882 209.759 120.217C209.845 119.302 210.079 118.49 210.46 117.781C210.842 117.077 211.345 116.524 211.97 116.121C212.439 115.819 212.984 115.603 213.605 115.473C214.225 115.348 214.874 115.317 215.549 115.381C216.48 115.469 217.33 115.717 218.099 116.125C218.869 116.533 219.485 117.063 219.948 117.716C220.323 118.249 220.594 118.849 220.762 119.516C220.93 120.182 220.98 120.874 220.912 121.591C220.873 122.007 220.798 122.388 220.686 122.735C220.575 123.086 220.411 123.453 220.197 123.837L219.943 124.277C219.885 124.387 219.852 124.489 219.843 124.583C219.824 124.791 219.978 124.965 220.305 125.106L220.286 125.309Z" fill="#343A32"/>
<path d="M218.916 133.384L218.704 135.64L210.169 133.746L209.586 133.624C209.24 133.547 208.98 133.511 208.808 133.516C208.641 133.521 208.491 133.571 208.358 133.665C208.188 133.777 208.026 134.016 207.869 134.383L207.716 134.349L208.465 130.976L208.618 131.01C208.591 131.325 208.598 131.557 208.64 131.705C208.687 131.855 208.791 131.99 208.951 132.111C209.056 132.193 209.223 132.271 209.453 132.343C209.687 132.422 210.029 132.511 210.477 132.61L216.481 133.943C217.001 134.058 217.371 134.127 217.59 134.149C217.81 134.171 217.996 134.153 218.148 134.096C218.31 134.041 218.435 133.959 218.523 133.85C218.612 133.742 218.689 133.574 218.755 133.348L218.916 133.384Z" fill="#343A32"/>
<path d="M209.695 140.012C210.497 140.28 211.113 140.817 211.544 141.621C212.065 142.599 212.157 143.591 211.821 144.597C211.485 145.602 210.815 146.336 209.812 146.799C208.979 147.182 208.162 147.239 207.36 146.971C206.567 146.706 205.956 146.187 205.525 145.416C204.994 144.467 204.906 143.463 205.261 142.403C205.615 141.343 206.29 140.592 207.287 140.148C207.675 139.975 208.077 139.876 208.493 139.85C208.908 139.829 209.308 139.883 209.695 140.012ZM209.324 141.391C208.462 141.103 207.667 141.052 206.939 141.238C206.124 141.45 205.612 141.871 205.402 142.5C205.312 142.767 205.3 143.052 205.364 143.354C205.428 143.657 205.563 143.944 205.769 144.217C205.982 144.503 206.277 144.775 206.653 145.033C207.034 145.292 207.42 145.488 207.812 145.618C208.218 145.754 208.648 145.826 209.102 145.835C209.56 145.85 209.972 145.801 210.341 145.688C211.036 145.469 211.483 145.065 211.68 144.475C211.867 143.915 211.734 143.334 211.28 142.731C210.828 142.123 210.176 141.676 209.324 141.391Z" fill="#343A32"/>
<path d="M208.503 153.346L207.156 156.071L207.008 155.998C207.239 155.46 207.165 155.097 206.786 154.909C206.599 154.817 206.164 154.718 205.482 154.614L202.439 154.176L205.016 156.935C205.213 157.149 205.386 157.293 205.536 157.367C205.939 157.566 206.272 157.428 206.536 156.953L206.684 157.026L205.358 159.709L205.21 159.636C205.291 159.39 205.322 159.204 205.302 159.078C205.273 158.877 205.156 158.726 204.95 158.624C204.786 158.543 204.532 158.473 204.189 158.414L200.64 157.814L202.88 160.284C203.171 160.603 203.41 160.808 203.597 160.901C203.85 161.026 204.088 161.033 204.312 160.922C204.431 160.87 204.581 160.743 204.762 160.542L204.91 160.614L203.889 162.679L203.742 162.606C203.841 162.405 203.865 162.192 203.812 161.968C203.784 161.826 203.711 161.667 203.593 161.493C203.478 161.325 203.29 161.098 203.029 160.812L202.744 160.488L199.388 156.758L199.51 156.512L204.961 157.293L201.187 153.12L201.305 152.881L206.251 153.588L206.847 153.672C207.387 153.747 207.758 153.733 207.961 153.629C208.082 153.572 208.214 153.454 208.355 153.273L208.503 153.346Z" fill="#343A32"/>
<path d="M201.07 166.972L200.091 169.016L196.283 166.567L195.778 166.252C195.479 166.06 195.248 165.936 195.085 165.881C194.926 165.828 194.768 165.823 194.611 165.865C194.413 165.911 194.178 166.08 193.905 166.37L193.773 166.285L195.641 163.379L195.773 163.464C195.639 163.75 195.565 163.97 195.553 164.124C195.546 164.28 195.596 164.443 195.705 164.612C195.775 164.725 195.905 164.856 196.096 165.003C196.288 165.158 196.578 165.36 196.964 165.608L198.592 166.655C199.044 166.946 199.368 167.138 199.562 167.232C199.761 167.329 199.941 167.376 200.103 167.375C200.274 167.379 200.42 167.346 200.541 167.274C200.665 167.206 200.798 167.077 200.938 166.887L201.07 166.972ZM202.778 170.008C202.889 169.836 203.035 169.729 203.219 169.685C203.399 169.646 203.573 169.68 203.74 169.788C203.902 169.892 204.002 170.037 204.038 170.221C204.079 170.409 204.046 170.586 203.938 170.753C203.831 170.92 203.683 171.024 203.496 171.065C203.312 171.109 203.14 171.078 202.977 170.974C202.81 170.866 202.708 170.72 202.672 170.535C202.633 170.355 202.668 170.179 202.778 170.008Z" fill="#343A32"/>
<path d="M195.167 175.991C194.885 175.859 194.642 175.711 194.438 175.548L194.34 175.469C194.432 176.373 194.199 177.173 193.64 177.87C193.222 178.392 192.764 178.713 192.264 178.835C191.772 178.956 191.304 178.839 190.86 178.483L188.269 176.405C187.991 176.183 187.775 176.036 187.618 175.964C187.466 175.896 187.309 175.874 187.148 175.899C186.947 175.925 186.695 176.068 186.393 176.328L186.271 176.23L188.432 173.534L188.554 173.632C188.391 173.903 188.295 174.114 188.267 174.265C188.243 174.42 188.276 174.588 188.367 174.767C188.425 174.887 188.541 175.03 188.715 175.197C188.89 175.371 189.155 175.6 189.51 175.884L190.805 176.923C191.25 177.279 191.589 177.524 191.823 177.658C192.053 177.796 192.266 177.873 192.461 177.888C192.679 177.909 192.897 177.863 193.114 177.75C193.336 177.64 193.532 177.479 193.702 177.267C193.885 177.039 194.012 176.789 194.082 176.517C194.149 176.25 194.151 175.997 194.088 175.759C194.023 175.506 193.903 175.276 193.728 175.068C193.553 174.868 193.228 174.577 192.751 174.195L191.553 173.235L191.096 172.878C190.819 172.656 190.602 172.509 190.445 172.437C190.293 172.369 190.136 172.347 189.976 172.372C189.774 172.398 189.522 172.541 189.22 172.801L189.098 172.703L191.259 170.007L191.381 170.105C191.218 170.376 191.122 170.587 191.094 170.739C191.07 170.894 191.104 171.061 191.194 171.24C191.252 171.36 191.368 171.504 191.542 171.67C191.717 171.844 191.984 172.075 192.343 172.362L193.853 173.572C194.272 173.909 194.574 174.134 194.757 174.247C194.945 174.364 195.119 174.43 195.281 174.446C195.45 174.468 195.599 174.45 195.726 174.391C195.857 174.336 196.003 174.222 196.162 174.048L196.284 174.146L195.167 175.991Z" fill="#343A32"/>
<path d="M181.184 180.647L181.258 180.52C181.423 180.562 181.558 180.573 181.662 180.552C181.765 180.531 181.864 180.475 181.957 180.383C182.114 180.23 182.184 180.044 182.168 179.826C182.148 179.612 182.045 179.409 181.859 179.219C181.563 178.917 181.169 178.817 180.676 178.918C180.184 179.02 179.703 179.301 179.233 179.762C178.733 180.251 178.435 180.754 178.341 181.27C178.24 181.786 178.357 182.216 178.693 182.559C178.964 182.835 179.274 182.947 179.626 182.896C179.974 182.84 180.338 182.626 180.718 182.254L181.608 181.382C181.974 181.024 182.353 180.822 182.745 180.774C183.152 180.727 183.478 180.828 183.722 181.078C183.982 181.343 184.063 181.673 183.967 182.067C183.913 182.266 183.76 182.572 183.508 182.987C183.979 182.818 184.423 182.768 184.839 182.835C185.259 182.906 185.614 183.089 185.902 183.384C186.271 183.761 186.46 184.234 186.469 184.802C186.476 185.139 186.416 185.465 186.287 185.781C186.158 186.097 185.976 186.37 185.741 186.6C185.382 186.951 184.893 187.182 184.271 187.294C184.231 187.604 184.169 187.854 184.086 188.045C184.002 188.244 183.878 188.423 183.714 188.584C183.531 188.763 183.346 188.868 183.157 188.9C182.928 188.934 182.744 188.88 182.605 188.739C182.521 188.653 182.476 188.554 182.469 188.444C182.467 188.336 182.505 188.244 182.583 188.168C182.702 188.051 182.873 188.008 183.094 188.04L183.387 188.082C183.546 188.102 183.69 188.048 183.821 187.921C183.959 187.785 184.037 187.574 184.055 187.286C183.391 187.212 182.867 186.98 182.484 186.588C182.005 186.099 181.843 185.501 181.999 184.793C182.076 184.44 182.216 184.116 182.419 183.823C182.483 183.739 182.701 183.488 183.075 183.071C183.591 182.5 183.715 182.079 183.449 181.806C183.215 181.568 182.865 181.677 182.398 182.133L181.474 183.037C181.15 183.355 180.846 183.594 180.564 183.753C180.285 183.917 180.002 184.019 179.713 184.06C179.147 184.139 178.649 183.958 178.218 183.518C177.743 183.033 177.562 182.468 177.676 181.822C177.794 181.159 178.232 180.456 178.989 179.715C179.803 178.918 180.54 178.518 181.201 178.514C181.626 178.515 181.994 178.674 182.304 178.991C182.549 179.241 182.677 179.533 182.688 179.865C182.696 180.194 182.584 180.471 182.353 180.698C182.185 180.862 181.999 180.945 181.796 180.947C181.589 180.952 181.405 180.872 181.245 180.708L181.184 180.647ZM185.069 184.123C184.675 183.72 184.269 183.473 183.853 183.384C183.433 183.298 183.09 183.385 182.825 183.644C182.557 183.908 182.47 184.237 182.565 184.633C182.665 185.033 182.933 185.457 183.372 185.905C183.825 186.368 184.283 186.642 184.748 186.728C185.091 186.795 185.374 186.718 185.598 186.499C185.866 186.236 185.951 185.89 185.853 185.461C185.803 185.246 185.708 185.018 185.566 184.776C185.425 184.535 185.259 184.317 185.069 184.123Z" fill="#343A32"/>
<path d="M164.87 194.795L166.496 197.592L166.341 197.683C165.733 197.085 165.177 196.658 164.674 196.403C163.738 195.938 162.898 195.924 162.157 196.363C161.64 196.669 161.315 197.094 161.183 197.64C161.05 198.185 161.141 198.723 161.454 199.254C161.59 199.483 161.766 199.694 161.984 199.887C162.197 200.083 162.416 200.229 162.643 200.325C162.877 200.423 163.161 200.483 163.495 200.504C163.825 200.528 164.305 200.519 164.937 200.48C165.492 200.443 165.927 200.431 166.244 200.444C166.557 200.459 166.828 200.502 167.058 200.572C167.694 200.766 168.192 201.167 168.551 201.774C168.771 202.147 168.91 202.55 168.966 202.984C169.018 203.421 168.982 203.842 168.859 204.249C168.643 204.971 168.209 205.525 167.557 205.911C167.346 206.036 167.137 206.129 166.931 206.19C166.727 206.256 166.437 206.315 166.062 206.367C165.784 206.41 165.596 206.442 165.499 206.463C165.405 206.488 165.327 206.52 165.264 206.557C165.106 206.65 165.068 206.827 165.15 207.088L164.995 207.18L163.365 204.531L163.52 204.439C163.894 204.795 164.192 205.058 164.415 205.23C164.636 205.408 164.864 205.558 165.1 205.68C165.528 205.9 165.923 206.015 166.287 206.025C166.653 206.039 167.009 205.943 167.355 205.739C167.859 205.441 168.156 205.035 168.246 204.52C168.285 204.309 168.284 204.088 168.245 203.857C168.2 203.628 168.122 203.419 168.011 203.231C167.567 202.48 166.726 202.161 165.488 202.274L164.267 202.378C163.329 202.465 162.575 202.395 162.004 202.168C161.359 201.919 160.853 201.484 160.486 200.864C160.242 200.45 160.091 200.005 160.034 199.529C159.957 198.865 160.067 198.251 160.364 197.687C160.664 197.127 161.131 196.66 161.765 196.285C162.345 195.942 162.97 195.727 163.641 195.64C163.991 195.597 164.199 195.568 164.263 195.554C164.328 195.54 164.394 195.513 164.461 195.473C164.677 195.346 164.761 195.15 164.715 194.887L164.87 194.795Z" fill="#343A32"/>
<path d="M153.342 204.554L152.655 206.551C152.518 206.97 152.435 207.27 152.406 207.454C152.38 207.642 152.399 207.81 152.463 207.959C152.553 208.164 152.72 208.262 152.967 208.252C153.074 208.251 153.256 208.204 153.511 208.11L153.577 208.261L150.81 209.462L150.745 209.311C151.094 209.159 151.351 208.977 151.515 208.763C151.678 208.55 151.853 208.178 152.038 207.648L152.185 207.2L152.603 206.019L149.844 204.74C149.618 204.639 149.471 204.575 149.402 204.548L148.935 204.358C148.564 204.211 148.301 204.115 148.144 204.069C147.987 204.023 147.811 203.992 147.616 203.974C147.392 203.957 147.131 203.999 146.834 204.1L146.771 203.957L150.141 202.493L150.204 202.637C150.011 202.743 149.884 202.838 149.823 202.922C149.74 203.043 149.726 203.169 149.782 203.298C149.842 203.437 149.975 203.553 150.181 203.646L150.406 203.753L152.982 204.924L153.211 204.252L152.983 203.727L152.739 203.184C152.597 202.859 152.474 202.627 152.369 202.491C152.266 202.359 152.138 202.267 151.984 202.214C151.794 202.143 151.505 202.152 151.116 202.241L151.054 202.097L154.223 200.721L154.285 200.865C154.014 201.028 153.831 201.17 153.736 201.291C153.642 201.417 153.594 201.58 153.59 201.781C153.585 201.914 153.621 202.095 153.697 202.324C153.771 202.559 153.9 202.888 154.083 203.31L156.532 208.95C156.744 209.439 156.906 209.779 157.017 209.969C157.129 210.16 157.252 210.3 157.388 210.389C157.527 210.488 157.667 210.541 157.807 210.549C157.947 210.556 158.128 210.52 158.35 210.441L158.415 210.592L156.465 211.746L153.342 204.554Z" fill="#343A32"/>
<path d="M145.036 211.414L142.981 212.367L141.602 208.054L141.413 207.49C141.305 207.151 141.206 206.909 141.115 206.763C141.026 206.621 140.907 206.516 140.76 206.449C140.577 206.359 140.289 206.339 139.893 206.388L139.846 206.239L143.136 205.187L143.184 205.336C142.898 205.472 142.702 205.595 142.595 205.706C142.489 205.822 142.424 205.979 142.401 206.179C142.382 206.311 142.4 206.494 142.453 206.73C142.503 206.971 142.598 207.311 142.738 207.749L143.327 209.592C143.491 210.104 143.618 210.458 143.708 210.655C143.799 210.855 143.908 211.007 144.034 211.109C144.163 211.222 144.297 211.289 144.435 211.31C144.576 211.337 144.76 211.322 144.988 211.265L145.036 211.414ZM144.421 214.843C144.615 214.781 144.797 214.791 144.966 214.874C145.13 214.959 145.243 215.096 145.303 215.285C145.362 215.469 145.346 215.644 145.257 215.809C145.169 215.98 145.03 216.096 144.841 216.156C144.652 216.216 144.472 216.203 144.302 216.115C144.133 216.032 144.019 215.898 143.96 215.714C143.899 215.525 143.914 215.348 144.004 215.182C144.088 215.018 144.227 214.905 144.421 214.843Z" fill="#343A32"/>
<path d="M134.742 214.612C134.609 214.33 134.515 214.062 134.462 213.806L134.437 213.683C133.932 214.439 133.243 214.908 132.369 215.089C131.714 215.226 131.156 215.182 130.693 214.958C130.237 214.738 129.951 214.35 129.835 213.792L129.158 210.54C129.086 210.193 129.012 209.941 128.937 209.786C128.863 209.636 128.757 209.52 128.617 209.437C128.445 209.329 128.16 209.279 127.761 209.287L127.729 209.133L131.112 208.43L131.143 208.583C130.845 208.688 130.637 208.79 130.519 208.889C130.402 208.993 130.321 209.144 130.277 209.34C130.245 209.469 130.243 209.653 130.272 209.893C130.296 210.138 130.355 210.484 130.447 210.928L130.785 212.554C130.901 213.112 131.007 213.516 131.102 213.769C131.192 214.022 131.307 214.217 131.447 214.353C131.602 214.507 131.8 214.61 132.04 214.662C132.281 214.718 132.534 214.719 132.8 214.664C133.087 214.604 133.343 214.492 133.571 214.327C133.793 214.164 133.955 213.97 134.058 213.746C134.169 213.51 134.222 213.256 134.219 212.984C134.212 212.719 134.146 212.287 134.022 211.689L133.709 210.186L133.584 209.62C133.511 209.272 133.438 209.021 133.363 208.866C133.289 208.716 133.182 208.599 133.042 208.516C132.87 208.408 132.585 208.358 132.187 208.366L132.155 208.213L135.537 207.509L135.569 207.663C135.271 207.767 135.062 207.869 134.944 207.969C134.827 208.073 134.747 208.223 134.702 208.419C134.67 208.548 134.669 208.733 134.697 208.972C134.721 209.218 134.78 209.566 134.874 210.016L135.268 211.91C135.378 212.437 135.467 212.802 135.536 213.006C135.606 213.216 135.699 213.378 135.813 213.493C135.93 213.618 136.056 213.698 136.192 213.734C136.328 213.775 136.513 213.779 136.746 213.747L136.778 213.9L134.742 214.612Z" fill="#343A32"/>
<g filter="url(#filter0_d_26_3051)">
<path d="M34.0783 111.108C34.0783 68.5772 68.5562 34.0993 111.087 34.0993C153.617 34.0993 188.095 68.5772 188.095 111.108C188.095 153.638 153.617 188.116 111.087 188.116C68.5562 188.116 34.0783 153.638 34.0783 111.108Z" fill="#EBD5C8" stroke="#343A32" stroke-width="2.40652"/>
<path d="M135.763 107.286L102.988 88.0509C100.325 86.4888 96.2466 88.0047 96.2466 91.8685V130.33C96.2466 133.797 100.036 135.886 102.988 134.148L135.763 114.922C138.687 113.212 138.696 108.997 135.763 107.286Z" fill="#343A32"/>
</g>
<defs>
<filter id="filter0_d_26_3051" x="32.875" y="32.896" width="156.424" height="164.424" filterUnits="userSpaceOnUse" color-interpolation-filters="sRGB">
<feFlood flood-opacity="0" result="BackgroundImageFix"/>
<feColorMatrix in="SourceAlpha" type="matrix" values="0 0 0 0 0 0 0 0 0 0 0 0 0 0 0 0 0 0 127 0" result="hardAlpha"/>
<feOffset dy="8"/>
<feComposite in2="hardAlpha" operator="out"/>
<feColorMatrix type="matrix" values="0 0 0 0 0.203922 0 0 0 0 0.227451 0 0 0 0 0.196078 0 0 0 1 0"/>
<feBlend mode="normal" in2="BackgroundImageFix" result="effect1_dropShadow_26_3051"/>
<feBlend mode="normal" in="SourceGraphic" in2="effect1_dropShadow_26_3051" result="shape"/>
</filter>
</defs>
</svg>
