<svg width="20" height="16" viewBox="0 0 20 16" fill="none" xmlns="http://www.w3.org/2000/svg">
<path fill-rule="evenodd" clip-rule="evenodd" d="M13.7415 0.0327148C11.765 0.0327125 10.5731 1.06688 10.023 2.30145C9.67821 3.07528 9.55443 3.97223 9.72051 4.80705C6.56943 4.47515 3.77469 3.29227 1.90039 0.823925C1.76043 0.639613 1.46297 0.690868 1.41104 0.916391C0.986229 2.76098 0.925694 4.70338 2.75205 6.10928C2.33473 6.02064 1.83515 5.80722 1.35903 5.60383C1.24686 5.55591 1.136 5.50855 1.02781 5.46351C0.819756 5.37688 0.622768 5.5756 0.710972 5.78299C1.46041 7.54511 2.5649 8.68777 4.3347 9.50754C3.75704 9.67376 2.97628 9.69577 2.20801 9.6257C1.98983 9.60579 1.83993 9.82889 1.97757 9.99936C2.74237 10.9466 4.36236 11.921 5.92028 12.1403C4.27915 13.0386 2.55702 13.526 0.725443 13.7577C0.472736 13.7897 0.395269 14.1158 0.617784 14.2398C4.08695 16.1727 8.79217 16.2403 12.2078 14.1491C14.8024 12.5606 16.377 9.95903 17.2092 7.4622C17.4615 6.70546 17.6884 5.50537 17.6386 4.2891C17.6351 4.20429 17.6702 4.12226 17.735 4.06742C18.1748 3.69507 19.6772 2.40884 19.7729 2.13167C19.7812 2.10767 19.7671 2.08342 19.7422 2.07808C19.6046 2.0485 19.1333 2.20757 18.5864 2.35825C18.122 2.48618 17.6551 2.57645 17.5385 2.59764C18.2128 1.84765 19.1219 1.08398 18.9353 0.799376C18.9238 0.781867 18.9068 0.768576 18.8861 0.765184C18.6678 0.72935 17.6954 1.09158 16.9102 1.32694C16.8043 1.35869 16.6911 1.31974 16.6196 1.23545C16.5393 1.14095 16.4533 1.05019 16.3611 0.963753C15.7317 0.373696 14.8653 0.0327162 13.7415 0.0327148ZM2.14722 2.8653C4.55868 5.08697 7.83985 5.7516 11.0105 5.97254C11.2293 5.98779 11.3701 5.7468 11.2612 5.55646C10.7532 4.66893 10.5168 3.83572 11.0054 2.73915C11.3939 1.86721 12.2166 1.10818 13.7415 1.10819C14.6343 1.10819 15.2243 1.37216 15.6255 1.74835C16.0367 2.13381 16.3004 2.68505 16.4425 3.33959C16.7299 4.66389 16.482 6.24298 16.189 7.1221C15.408 9.46489 13.9581 11.8165 11.6462 13.2319C9.73699 14.4008 7.18171 14.9667 3.81005 14.2923C5.69938 13.8067 7.64497 12.7661 8.8667 11.5432C9.05726 11.3525 8.84595 11.0495 8.58172 11.1031C7.23325 11.3771 5.66349 11.1718 4.3347 10.4507C5.23211 10.3574 6.06542 10.2081 6.88183 9.95001C7.15699 9.86302 7.08943 9.44584 6.80598 9.39162C5.36967 9.1169 3.92138 8.34319 2.46835 6.95754C3.29883 7.2464 4.59888 7.44234 5.8032 7.29974C6.07747 7.26727 6.07682 6.91277 5.81446 6.82647C4.00659 6.23179 2.20346 4.98204 2.14722 2.8653Z" fill="#343A32"/>
</svg>
