<svg width="37" height="30" viewBox="0 0 37 30" fill="none" xmlns="http://www.w3.org/2000/svg">
<path fill-rule="evenodd" clip-rule="evenodd" d="M25.2035 0.428925C21.5277 0.42892 19.3112 2.35211 18.2883 4.64797C17.6471 6.08703 17.4169 7.75503 17.7257 9.30751C11.8658 8.6903 6.66861 6.49055 3.18306 1.9003C2.92279 1.55754 2.36962 1.65286 2.27304 2.07225C1.48304 5.50254 1.37047 9.11472 4.76686 11.7292C3.99079 11.5644 3.06175 11.1675 2.17633 10.7892C1.96774 10.7001 1.76156 10.6121 1.56038 10.5283C1.17346 10.3672 0.807134 10.7367 0.971164 11.1224C2.36485 14.3994 4.41882 16.5243 7.71003 18.0488C6.63578 18.3579 5.18384 18.3988 3.75514 18.2685C3.34938 18.2315 3.07064 18.6464 3.32659 18.9634C4.74886 20.7249 7.76147 22.5369 10.6586 22.9449C7.60673 24.6153 4.40416 25.5218 0.998075 25.9526C0.528128 26.0121 0.384067 26.6186 0.797866 26.8492C7.24929 30.4436 15.9993 30.5693 22.3512 26.6805C27.1763 23.7264 30.1044 18.8884 31.6521 14.2452C32.1212 12.8379 32.5432 10.6061 32.4506 8.34431C32.4442 8.18658 32.5094 8.03405 32.6299 7.93205C33.4478 7.23963 36.2416 4.84768 36.4197 4.33225C36.4351 4.28762 36.4088 4.24251 36.3626 4.23259C36.1066 4.17757 35.2303 4.47339 34.2132 4.7536C33.3496 4.99151 32.4813 5.15939 32.2645 5.19879C33.5184 3.80406 35.209 2.3839 34.862 1.85465C34.8406 1.82208 34.809 1.79737 34.7705 1.79106C34.3645 1.72442 32.5563 2.39804 31.0961 2.83574C30.8991 2.89478 30.6886 2.82235 30.5555 2.66559C30.4063 2.48986 30.2463 2.32107 30.0749 2.16033C28.9044 1.06303 27.2933 0.428927 25.2035 0.428925ZM3.64209 5.69654C8.12655 9.82808 14.2284 11.064 20.1247 11.4749C20.5316 11.5033 20.7934 11.0551 20.5908 10.7012C19.6461 9.05066 19.2065 7.50119 20.1151 5.46194C20.8376 3.84044 22.3676 2.42892 25.2035 2.42892C26.8636 2.42893 27.9608 2.91983 28.707 3.6194C29.4716 4.33622 29.962 5.36134 30.2262 6.57854C30.7608 9.04129 30.2997 11.9778 29.7548 13.6127C28.3025 17.9695 25.6061 22.3427 21.3069 24.9748C17.7564 27.1485 13.0045 28.201 6.73437 26.9468C10.2479 26.0438 13.866 24.1086 16.138 21.8345C16.4923 21.4798 16.0994 20.9162 15.608 21.016C13.1003 21.5255 10.1811 21.1436 7.71003 19.8027C9.37889 19.6292 10.9286 19.3516 12.4468 18.8716C12.9585 18.7098 12.8329 17.934 12.3057 17.8332C9.63471 17.3223 6.9414 15.8835 4.23926 13.3067C5.78367 13.8438 8.2013 14.2082 10.4409 13.943C10.951 13.8827 10.9498 13.2234 10.4619 13.0629C7.09986 11.957 3.74666 9.63294 3.64209 5.69654Z" fill="#CA9538"/>
</svg>
